<mxfile host="app.diagrams.net" modified="2022-02-24T14:16:51.118Z" agent="5.0 (Windows)" etag="c8e0Sie2FYgFbvToK2ey" version="16.6.1" type="github">
  <diagram id="C5RBs43oDa-KdzZeNtuy" name="Page-1">
    <mxGraphModel dx="973" dy="536" grid="1" gridSize="10" guides="1" tooltips="1" connect="1" arrows="1" fold="1" page="0" pageScale="1" pageWidth="827" pageHeight="1169" math="0" shadow="0">
      <root>
        <mxCell id="WIyWlLk6GJQsqaUBKTNV-0" />
        <mxCell id="WIyWlLk6GJQsqaUBKTNV-1" parent="WIyWlLk6GJQsqaUBKTNV-0" />
        <mxCell id="K5-wpXNanmHP5LTXSzT2-12" value="" style="edgeStyle=orthogonalEdgeStyle;rounded=0;orthogonalLoop=1;jettySize=auto;html=1;" parent="WIyWlLk6GJQsqaUBKTNV-1" edge="1">
          <mxGeometry relative="1" as="geometry">
            <mxPoint x="415" y="210" as="targetPoint" />
          </mxGeometry>
        </mxCell>
        <mxCell id="K5-wpXNanmHP5LTXSzT2-31" value="buka aplikasi" style="ellipse;whiteSpace=wrap;html=1;aspect=fixed;" parent="WIyWlLk6GJQsqaUBKTNV-1" vertex="1">
          <mxGeometry x="150" y="30" width="80" height="80" as="geometry" />
        </mxCell>
        <mxCell id="K5-wpXNanmHP5LTXSzT2-32" value="" style="endArrow=classic;html=1;rounded=0;exitX=0.5;exitY=1;exitDx=0;exitDy=0;" parent="WIyWlLk6GJQsqaUBKTNV-1" source="K5-wpXNanmHP5LTXSzT2-31" edge="1">
          <mxGeometry width="50" height="50" relative="1" as="geometry">
            <mxPoint x="190" y="210" as="sourcePoint" />
            <mxPoint x="190" y="180" as="targetPoint" />
          </mxGeometry>
        </mxCell>
        <mxCell id="K5-wpXNanmHP5LTXSzT2-33" value="Halaman Utama" style="rounded=1;whiteSpace=wrap;html=1;" parent="WIyWlLk6GJQsqaUBKTNV-1" vertex="1">
          <mxGeometry x="130" y="180" width="120" height="60" as="geometry" />
        </mxCell>
        <mxCell id="K5-wpXNanmHP5LTXSzT2-35" value="" style="endArrow=classic;html=1;rounded=0;exitX=0.5;exitY=1;exitDx=0;exitDy=0;" parent="WIyWlLk6GJQsqaUBKTNV-1" edge="1">
          <mxGeometry width="50" height="50" relative="1" as="geometry">
            <mxPoint x="189.5" y="240" as="sourcePoint" />
            <mxPoint x="189.5" y="310" as="targetPoint" />
          </mxGeometry>
        </mxCell>
        <mxCell id="K5-wpXNanmHP5LTXSzT2-50" value="halaman film" style="rounded=1;whiteSpace=wrap;html=1;" parent="WIyWlLk6GJQsqaUBKTNV-1" vertex="1">
          <mxGeometry x="310" y="470" width="120" height="60" as="geometry" />
        </mxCell>
        <mxCell id="K5-wpXNanmHP5LTXSzT2-53" value="memilih lokasi tayang" style="ellipse;whiteSpace=wrap;html=1;aspect=fixed;" parent="WIyWlLk6GJQsqaUBKTNV-1" vertex="1">
          <mxGeometry x="150" y="308" width="80" height="80" as="geometry" />
        </mxCell>
        <mxCell id="K5-wpXNanmHP5LTXSzT2-54" value="memilih film" style="rhombus;whiteSpace=wrap;html=1;" parent="WIyWlLk6GJQsqaUBKTNV-1" vertex="1">
          <mxGeometry x="150" y="460" width="80" height="80" as="geometry" />
        </mxCell>
        <mxCell id="K5-wpXNanmHP5LTXSzT2-58" value="" style="endArrow=none;html=1;rounded=0;" parent="WIyWlLk6GJQsqaUBKTNV-1" edge="1">
          <mxGeometry width="50" height="50" relative="1" as="geometry">
            <mxPoint x="79" y="500" as="sourcePoint" />
            <mxPoint x="79" y="210" as="targetPoint" />
          </mxGeometry>
        </mxCell>
        <mxCell id="K5-wpXNanmHP5LTXSzT2-59" value="" style="endArrow=classic;html=1;rounded=0;entryX=0;entryY=0.5;entryDx=0;entryDy=0;" parent="WIyWlLk6GJQsqaUBKTNV-1" target="K5-wpXNanmHP5LTXSzT2-33" edge="1">
          <mxGeometry width="50" height="50" relative="1" as="geometry">
            <mxPoint x="80" y="210" as="sourcePoint" />
            <mxPoint x="110" y="170" as="targetPoint" />
          </mxGeometry>
        </mxCell>
        <mxCell id="K5-wpXNanmHP5LTXSzT2-60" value="&lt;div&gt;no&lt;/div&gt;" style="text;html=1;align=center;verticalAlign=middle;resizable=0;points=[];autosize=1;strokeColor=none;fillColor=none;" parent="WIyWlLk6GJQsqaUBKTNV-1" vertex="1">
          <mxGeometry x="75" y="360" width="30" height="20" as="geometry" />
        </mxCell>
        <mxCell id="K5-wpXNanmHP5LTXSzT2-61" value="" style="endArrow=classic;html=1;rounded=0;exitX=0.5;exitY=0;exitDx=0;exitDy=0;" parent="WIyWlLk6GJQsqaUBKTNV-1" source="K5-wpXNanmHP5LTXSzT2-50" target="K5-wpXNanmHP5LTXSzT2-62" edge="1">
          <mxGeometry width="50" height="50" relative="1" as="geometry">
            <mxPoint x="370" y="350" as="sourcePoint" />
            <mxPoint x="370" y="390" as="targetPoint" />
          </mxGeometry>
        </mxCell>
        <mxCell id="K5-wpXNanmHP5LTXSzT2-62" value="beli tiket" style="ellipse;whiteSpace=wrap;html=1;aspect=fixed;" parent="WIyWlLk6GJQsqaUBKTNV-1" vertex="1">
          <mxGeometry x="330" y="346" width="80" height="80" as="geometry" />
        </mxCell>
        <mxCell id="K5-wpXNanmHP5LTXSzT2-63" value="" style="endArrow=classic;html=1;rounded=0;" parent="WIyWlLk6GJQsqaUBKTNV-1" target="K5-wpXNanmHP5LTXSzT2-64" edge="1">
          <mxGeometry width="50" height="50" relative="1" as="geometry">
            <mxPoint x="369" y="345" as="sourcePoint" />
            <mxPoint x="369" y="275" as="targetPoint" />
          </mxGeometry>
        </mxCell>
        <mxCell id="K5-wpXNanmHP5LTXSzT2-64" value="&lt;div&gt;halaman beli tiket&lt;/div&gt;&lt;div&gt;&lt;br&gt;&lt;/div&gt;" style="rounded=1;whiteSpace=wrap;html=1;" parent="WIyWlLk6GJQsqaUBKTNV-1" vertex="1">
          <mxGeometry x="309" y="239" width="120" height="60" as="geometry" />
        </mxCell>
        <mxCell id="K5-wpXNanmHP5LTXSzT2-65" value="" style="endArrow=classic;html=1;rounded=0;exitX=0.5;exitY=0;exitDx=0;exitDy=0;" parent="WIyWlLk6GJQsqaUBKTNV-1" source="K5-wpXNanmHP5LTXSzT2-64" target="K5-wpXNanmHP5LTXSzT2-66" edge="1">
          <mxGeometry width="50" height="50" relative="1" as="geometry">
            <mxPoint x="370" y="210" as="sourcePoint" />
            <mxPoint x="369" y="170" as="targetPoint" />
          </mxGeometry>
        </mxCell>
        <mxCell id="K5-wpXNanmHP5LTXSzT2-66" value="&lt;div&gt;memilih bioskop&lt;/div&gt;&lt;div&gt;&lt;br&gt;&lt;/div&gt;" style="ellipse;whiteSpace=wrap;html=1;aspect=fixed;" parent="WIyWlLk6GJQsqaUBKTNV-1" vertex="1">
          <mxGeometry x="329" y="116" width="80" height="80" as="geometry" />
        </mxCell>
        <mxCell id="K5-wpXNanmHP5LTXSzT2-67" value="" style="endArrow=classic;html=1;rounded=0;" parent="WIyWlLk6GJQsqaUBKTNV-1" edge="1">
          <mxGeometry width="50" height="50" relative="1" as="geometry">
            <mxPoint x="364" y="116" as="sourcePoint" />
            <mxPoint x="364" y="85" as="targetPoint" />
          </mxGeometry>
        </mxCell>
        <mxCell id="K5-wpXNanmHP5LTXSzT2-69" value="&lt;div&gt;memilih jam tayang&lt;/div&gt;&lt;div&gt;&lt;br&gt;&lt;/div&gt;" style="ellipse;whiteSpace=wrap;html=1;aspect=fixed;" parent="WIyWlLk6GJQsqaUBKTNV-1" vertex="1">
          <mxGeometry x="324" y="9" width="80" height="80" as="geometry" />
        </mxCell>
        <mxCell id="K5-wpXNanmHP5LTXSzT2-71" value="" style="endArrow=classic;html=1;rounded=0;" parent="WIyWlLk6GJQsqaUBKTNV-1" target="K5-wpXNanmHP5LTXSzT2-72" edge="1">
          <mxGeometry width="50" height="50" relative="1" as="geometry">
            <mxPoint x="405" y="48" as="sourcePoint" />
            <mxPoint x="475" y="48" as="targetPoint" />
          </mxGeometry>
        </mxCell>
        <mxCell id="K5-wpXNanmHP5LTXSzT2-72" value="&lt;div&gt;halaman beli tiket&lt;/div&gt;&lt;div&gt;&lt;br&gt;&lt;/div&gt;" style="rounded=1;whiteSpace=wrap;html=1;" parent="WIyWlLk6GJQsqaUBKTNV-1" vertex="1">
          <mxGeometry x="441" y="18" width="120" height="60" as="geometry" />
        </mxCell>
        <mxCell id="K5-wpXNanmHP5LTXSzT2-73" value="" style="endArrow=classic;html=1;rounded=0;" parent="WIyWlLk6GJQsqaUBKTNV-1" edge="1">
          <mxGeometry width="50" height="50" relative="1" as="geometry">
            <mxPoint x="500" y="80" as="sourcePoint" />
            <mxPoint x="500" y="110" as="targetPoint" />
          </mxGeometry>
        </mxCell>
        <mxCell id="K5-wpXNanmHP5LTXSzT2-75" value="" style="endArrow=classic;html=1;rounded=0;exitX=0.5;exitY=1;exitDx=0;exitDy=0;" parent="WIyWlLk6GJQsqaUBKTNV-1" edge="1">
          <mxGeometry width="50" height="50" relative="1" as="geometry">
            <mxPoint x="500" y="190" as="sourcePoint" />
            <mxPoint x="500.49367088607596" y="228.50632911392404" as="targetPoint" />
          </mxGeometry>
        </mxCell>
        <mxCell id="K5-wpXNanmHP5LTXSzT2-77" value="" style="endArrow=classic;html=1;rounded=0;exitX=0.5;exitY=1;exitDx=0;exitDy=0;" parent="WIyWlLk6GJQsqaUBKTNV-1" edge="1">
          <mxGeometry width="50" height="50" relative="1" as="geometry">
            <mxPoint x="501" y="308" as="sourcePoint" />
            <mxPoint x="500.9521111178517" y="310.01133305022813" as="targetPoint" />
          </mxGeometry>
        </mxCell>
        <mxCell id="K5-wpXNanmHP5LTXSzT2-80" value="masukan jumlah tiket" style="ellipse;whiteSpace=wrap;html=1;aspect=fixed;" parent="WIyWlLk6GJQsqaUBKTNV-1" vertex="1">
          <mxGeometry x="461" y="110" width="80" height="80" as="geometry" />
        </mxCell>
        <mxCell id="K5-wpXNanmHP5LTXSzT2-81" value="&lt;div&gt;memilih kursi&lt;/div&gt;&lt;div&gt;&lt;br&gt;&lt;/div&gt;" style="ellipse;whiteSpace=wrap;html=1;aspect=fixed;" parent="WIyWlLk6GJQsqaUBKTNV-1" vertex="1">
          <mxGeometry x="461" y="226" width="80" height="80" as="geometry" />
        </mxCell>
        <mxCell id="K5-wpXNanmHP5LTXSzT2-82" value="" style="endArrow=classic;html=1;rounded=0;exitX=0.5;exitY=1;exitDx=0;exitDy=0;" parent="WIyWlLk6GJQsqaUBKTNV-1" source="K5-wpXNanmHP5LTXSzT2-81" edge="1">
          <mxGeometry width="50" height="50" relative="1" as="geometry">
            <mxPoint x="370" y="240" as="sourcePoint" />
            <mxPoint x="501" y="350" as="targetPoint" />
          </mxGeometry>
        </mxCell>
        <mxCell id="K5-wpXNanmHP5LTXSzT2-83" value="memilih metode pembayaran" style="rhombus;whiteSpace=wrap;html=1;" parent="WIyWlLk6GJQsqaUBKTNV-1" vertex="1">
          <mxGeometry x="461" y="346" width="80" height="80" as="geometry" />
        </mxCell>
        <mxCell id="K5-wpXNanmHP5LTXSzT2-84" value="" style="endArrow=classic;html=1;rounded=0;" parent="WIyWlLk6GJQsqaUBKTNV-1" edge="1">
          <mxGeometry width="50" height="50" relative="1" as="geometry">
            <mxPoint x="540" y="390" as="sourcePoint" />
            <mxPoint x="610" y="390" as="targetPoint" />
          </mxGeometry>
        </mxCell>
        <mxCell id="K5-wpXNanmHP5LTXSzT2-86" value="" style="endArrow=none;html=1;rounded=0;exitX=0.5;exitY=1;exitDx=0;exitDy=0;" parent="WIyWlLk6GJQsqaUBKTNV-1" source="K5-wpXNanmHP5LTXSzT2-83" edge="1">
          <mxGeometry width="50" height="50" relative="1" as="geometry">
            <mxPoint x="370" y="350" as="sourcePoint" />
            <mxPoint x="500" y="500" as="targetPoint" />
          </mxGeometry>
        </mxCell>
        <mxCell id="K5-wpXNanmHP5LTXSzT2-87" value="&lt;div&gt;yes&lt;/div&gt;" style="text;html=1;align=center;verticalAlign=middle;resizable=0;points=[];autosize=1;strokeColor=none;fillColor=none;" parent="WIyWlLk6GJQsqaUBKTNV-1" vertex="1">
          <mxGeometry x="555" y="370" width="30" height="20" as="geometry" />
        </mxCell>
        <mxCell id="K5-wpXNanmHP5LTXSzT2-92" value="" style="endArrow=classic;html=1;rounded=0;entryX=0;entryY=0.5;entryDx=0;entryDy=0;entryPerimeter=0;" parent="WIyWlLk6GJQsqaUBKTNV-1" target="K5-wpXNanmHP5LTXSzT2-54" edge="1">
          <mxGeometry width="50" height="50" relative="1" as="geometry">
            <mxPoint x="80" y="500" as="sourcePoint" />
            <mxPoint x="360" y="380" as="targetPoint" />
          </mxGeometry>
        </mxCell>
        <mxCell id="K5-wpXNanmHP5LTXSzT2-93" value="" style="endArrow=classic;html=1;rounded=0;exitX=1;exitY=0.5;exitDx=0;exitDy=0;entryX=0;entryY=0.5;entryDx=0;entryDy=0;startArrow=none;" parent="WIyWlLk6GJQsqaUBKTNV-1" source="K5-wpXNanmHP5LTXSzT2-94" target="K5-wpXNanmHP5LTXSzT2-50" edge="1">
          <mxGeometry width="50" height="50" relative="1" as="geometry">
            <mxPoint x="310" y="540" as="sourcePoint" />
            <mxPoint x="360" y="490" as="targetPoint" />
          </mxGeometry>
        </mxCell>
        <mxCell id="K5-wpXNanmHP5LTXSzT2-94" value="&lt;div&gt;yes&lt;/div&gt;" style="text;html=1;align=center;verticalAlign=middle;resizable=0;points=[];autosize=1;strokeColor=none;fillColor=none;" parent="WIyWlLk6GJQsqaUBKTNV-1" vertex="1">
          <mxGeometry x="260" y="490" width="30" height="20" as="geometry" />
        </mxCell>
        <mxCell id="K5-wpXNanmHP5LTXSzT2-95" value="" style="endArrow=none;html=1;rounded=0;exitX=1;exitY=0.5;exitDx=0;exitDy=0;entryX=0;entryY=0.5;entryDx=0;entryDy=0;" parent="WIyWlLk6GJQsqaUBKTNV-1" source="K5-wpXNanmHP5LTXSzT2-54" target="K5-wpXNanmHP5LTXSzT2-94" edge="1">
          <mxGeometry width="50" height="50" relative="1" as="geometry">
            <mxPoint x="230" y="500" as="sourcePoint" />
            <mxPoint x="310" y="500" as="targetPoint" />
          </mxGeometry>
        </mxCell>
        <mxCell id="K5-wpXNanmHP5LTXSzT2-98" value="" style="endArrow=classic;html=1;rounded=0;entryX=1;entryY=0.5;entryDx=0;entryDy=0;" parent="WIyWlLk6GJQsqaUBKTNV-1" target="K5-wpXNanmHP5LTXSzT2-50" edge="1">
          <mxGeometry width="50" height="50" relative="1" as="geometry">
            <mxPoint x="500" y="500" as="sourcePoint" />
            <mxPoint x="360" y="490" as="targetPoint" />
          </mxGeometry>
        </mxCell>
        <mxCell id="K5-wpXNanmHP5LTXSzT2-99" value="no" style="text;html=1;align=center;verticalAlign=middle;resizable=0;points=[];autosize=1;strokeColor=none;fillColor=none;" parent="WIyWlLk6GJQsqaUBKTNV-1" vertex="1">
          <mxGeometry x="465" y="480" width="30" height="20" as="geometry" />
        </mxCell>
        <mxCell id="K5-wpXNanmHP5LTXSzT2-101" value="halaman pembayaran" style="rounded=1;whiteSpace=wrap;html=1;" parent="WIyWlLk6GJQsqaUBKTNV-1" vertex="1">
          <mxGeometry x="610" y="356" width="120" height="60" as="geometry" />
        </mxCell>
        <mxCell id="K5-wpXNanmHP5LTXSzT2-102" value="" style="endArrow=classic;html=1;rounded=0;exitX=0.608;exitY=-0.033;exitDx=0;exitDy=0;exitPerimeter=0;" parent="WIyWlLk6GJQsqaUBKTNV-1" edge="1">
          <mxGeometry width="50" height="50" relative="1" as="geometry">
            <mxPoint x="682.96" y="355.02" as="sourcePoint" />
            <mxPoint x="683" y="281" as="targetPoint" />
          </mxGeometry>
        </mxCell>
        <mxCell id="K5-wpXNanmHP5LTXSzT2-103" value="konfirmasi pembayaran" style="ellipse;whiteSpace=wrap;html=1;aspect=fixed;" parent="WIyWlLk6GJQsqaUBKTNV-1" vertex="1">
          <mxGeometry x="650" y="200" width="80" height="80" as="geometry" />
        </mxCell>
        <mxCell id="K5-wpXNanmHP5LTXSzT2-104" value="" style="endArrow=classic;html=1;rounded=0;exitX=0.5;exitY=0;exitDx=0;exitDy=0;" parent="WIyWlLk6GJQsqaUBKTNV-1" source="K5-wpXNanmHP5LTXSzT2-103" target="K5-wpXNanmHP5LTXSzT2-105" edge="1">
          <mxGeometry width="50" height="50" relative="1" as="geometry">
            <mxPoint x="550" y="160" as="sourcePoint" />
            <mxPoint x="690" y="130" as="targetPoint" />
          </mxGeometry>
        </mxCell>
        <mxCell id="K5-wpXNanmHP5LTXSzT2-105" value="halaman kode QR tiket" style="rounded=1;whiteSpace=wrap;html=1;" parent="WIyWlLk6GJQsqaUBKTNV-1" vertex="1">
          <mxGeometry x="630" y="89" width="120" height="60" as="geometry" />
        </mxCell>
      </root>
    </mxGraphModel>
  </diagram>
</mxfile>
